<?xml version="1.0" encoding="utf-8" standalone="no"?>
<!DOCTYPE svg PUBLIC "-//W3C//DTD SVG 1.1//EN"
  "http://www.w3.org/Graphics/SVG/1.1/DTD/svg11.dtd">
<svg xmlns:xlink="http://www.w3.org/1999/xlink" width="275.750625pt" height="96pt" viewBox="0 0 275.750625 96" xmlns="http://www.w3.org/2000/svg" version="1.1">
 <metadata>
  <rdf:RDF xmlns:dc="http://purl.org/dc/elements/1.1/" xmlns:cc="http://creativecommons.org/ns#" xmlns:rdf="http://www.w3.org/1999/02/22-rdf-syntax-ns#">
   <cc:Work>
    <dc:type rdf:resource="http://purl.org/dc/dcmitype/StillImage"/>
    <dc:date>2025-11-25T15:35:56.922565</dc:date>
    <dc:format>image/svg+xml</dc:format>
    <dc:creator>
     <cc:Agent>
      <dc:title>Matplotlib v3.10.6, https://matplotlib.org/</dc:title>
     </cc:Agent>
    </dc:creator>
   </cc:Work>
  </rdf:RDF>
 </metadata>
 <defs>
  <style type="text/css">*{stroke-linejoin: round; stroke-linecap: butt}</style>
 </defs>
 <g id="figure_1">
  <g id="patch_1">
   <path d="M 0 96 
L 275.750625 96 
L 275.750625 0 
L 0 0 
L 0 96 
z
" style="fill: none"/>
  </g>
  <g id="axes_1">
   <g id="line2d_1">
    <path d="M 153.6 62.4 
L 168 52.8 
L 168 43.2 
L 153.6 52.8 
L 153.6 62.4 
" clip-path="url(#p0f2ccd5769)" style="fill: none; stroke: #004d40; stroke-opacity: 0.2; stroke-width: 1.5; stroke-linecap: square"/>
   </g>
   <g id="line2d_2">
    <path d="M 153.6 52.8 
L 168 43.2 
L 172.8 38.4 
L 158.4 48 
L 153.6 52.8 
" clip-path="url(#p0f2ccd5769)" style="fill: none; stroke: #004d40; stroke-opacity: 0.2; stroke-width: 1.5; stroke-linecap: square"/>
   </g>
   <g id="line2d_3">
    <path d="M 168 43.2 
L 172.8 38.4 
L 172.8 48 
L 168 52.8 
L 168 43.2 
" clip-path="url(#p0f2ccd5769)" style="fill: none; stroke: #004d40; stroke-opacity: 0.2; stroke-width: 1.5; stroke-linecap: square"/>
   </g>
   <g id="line2d_4">
    <path d="M 153.6 52.8 
L 158.4 48 
" clip-path="url(#p0f2ccd5769)" style="fill: none; stroke: #004d40; stroke-opacity: 0.14; stroke-width: 0.8; stroke-linecap: square"/>
   </g>
   <g id="line2d_5">
    <path d="M 160.8 48 
L 165.6 43.2 
" clip-path="url(#p0f2ccd5769)" style="fill: none; stroke: #004d40; stroke-opacity: 0.14; stroke-width: 0.8; stroke-linecap: square"/>
   </g>
   <g id="line2d_6">
    <path d="M 86.4 48 
L 86.381023 46.174027 
L 86.129905 44.353029 
L 85.647634 42.56659 
L 84.938975 40.844119 
L 84.012445 39.214366 
L 82.880216 37.704944 
L 81.557968 36.341859 
L 80.064672 35.149071 
L 78.422323 34.148068 
L 76.655621 33.357493 
L 74.791595 32.792798 
L 72.859195 32.465954 
L 70.888839 32.385214 
L 68.91194 32.554932 
L 66.960396 32.975444 
L 65.066086 33.643016 
L 63.260341 34.549855 
L 61.573432 35.684188 
L 60.03406 37.030408 
L 58.668872 38.569283 
L 57.502002 40.278224 
L 56.554649 42.131621 
L 55.844696 44.101218 
L 55.386384 46.156548 
L 55.190035 48.265399 
L 55.261839 50.394326 
L 55.603713 52.509174 
L 56.213213 54.575629 
L 57.08353 56.559777 
L 58.203554 58.428655 
L 59.558002 60.150802 
L 61.127624 61.696784 
L 62.889472 63.039698 
L 64.817233 64.155633 
L 66.881621 65.024095 
L 69.050817 65.628374 
L 71.290964 65.955856 
L 73.566692 65.998273 
L 75.841678 65.751882 
L 78.079225 65.217576 
L 80.242854 64.400914 
L 82.296897 63.312082 
L 84.207087 61.965777 
L 85.941127 60.381011 
L 87.469235 58.580851 
L 88.764652 56.592083 
L 89.804105 54.444819 
L 90.568225 52.17204 
L 91.041894 49.809088 
L 91.214539 47.393122 
L 91.080343 44.96253 
L 90.638389 42.556319 
L 89.892725 40.21349 
L 88.852343 37.972408 
L 87.531088 35.870171 
L 85.947472 33.941998 
L 84.124429 32.220639 
L 82.088978 30.735825 
L 79.871833 29.513754 
L 77.506932 28.576633 
L 75.030926 27.942282 
L 72.482606 27.623805 
L 69.902299 27.62933 
L 67.33123 27.961835 
L 64.810858 28.61905 
L 62.382217 29.593442 
L 60.085237 30.872293 
L 57.958098 32.437857 
L 56.036591 34.267597 
L 54.353519 36.334511 
L 52.938139 38.607523 
L 51.815657 41.051954 
L 51.006787 43.630044 
L 50.52737 46.30154 
L 50.38808 49.024321 
L 50.594203 51.755065 
L 51.145505 54.449933 
L 52.036186 57.065279 
L 53.254925 59.558352 
L 54.785017 61.887999 
L 56.604592 64.015336 
L 58.686928 65.904405 
L 61.000836 67.522773 
L 63.51113 68.842088 
L 66.179155 69.838571 
L 68.963388 70.493442 
L 71.820079 70.79326 
L 74.703941 70.730189 
L 77.568867 70.302172 
L 80.368667 69.513009 
L 83.057812 68.372347 
L 85.592176 66.895574 
L 87.929758 65.103614 
L 90.031376 63.02264 
L 91.861325 60.683693 
L 93.38798 58.122218 
L 94.584337 55.377534 
L 95.428489 52.492227 
L 95.904019 49.511491 
L 96 48 
L 96 48 
" clip-path="url(#p0f2ccd5769)" style="fill: none; stroke: #1e88e5; stroke-opacity: 0.6; stroke-width: 2.5; stroke-linecap: square"/>
   </g>
   <g id="line2d_7">
    <path d="M 64.8 35.529234 
L 63.22815 36.458655 
L 61.776678 37.586629 
L 60.470712 38.897508 
L 59.333337 40.372459 
L 58.385196 41.989735 
L 57.644112 43.724985 
L 57.12477 45.551628 
L 56.838433 47.441254 
L 56.792713 49.364071 
L 56.991406 51.289367 
L 57.434379 53.186009 
L 58.117524 55.022938 
L 59.032779 56.769686 
L 60.168209 58.396873 
L 61.508155 59.876703 
L 63.033444 61.183438 
L 64.721662 62.293839 
L 66.547478 63.187579 
L 68.483025 63.847604 
L 70.498323 64.260454 
L 72.561745 64.416522 
L 74.640511 64.310256 
L 76.701208 63.940294 
L 78.710331 63.309539 
L 80.634825 62.425157 
L 82.442627 61.298509 
L 84.103203 59.945014 
L 85.588056 58.383944 
L 86.871219 56.638153 
L 87.929703 54.733745 
L 88.743902 52.699686 
L 89.297951 50.567362 
L 89.580024 48.3701 
L 89.582572 46.142642 
L 89.302488 43.920599 
L 88.741211 41.739881 
L 87.904745 39.636116 
L 86.803615 37.644069 
L 85.452742 35.797068 
L 83.871246 34.126448 
L 82.082181 32.661022 
L 80.112204 31.426585 
L 77.991174 30.445464 
L 75.751706 29.736124 
L 73.428668 29.312824 
L 71.058636 29.185344 
L 68.679325 29.358783 
L 66.32898 29.833426 
L 64.045769 30.604692 
L 61.867159 31.66316 
L 59.829302 32.994674 
L 57.966439 34.580522 
L 56.310322 36.397701 
L 54.889679 38.419238 
L 53.729716 40.614598 
L 52.851677 42.950136 
L 52.272458 45.389617 
L 52.004297 47.894776 
L 52.054525 50.425916 
L 52.425405 52.942541 
L 53.114044 55.404 
L 54.112395 57.770149 
L 55.407333 60.001997 
L 56.980826 62.062356 
L 58.810175 63.916454 
L 60.868345 65.532524 
L 63.124352 66.882341 
L 65.54374 67.941715 
L 68.089095 68.690919 
L 70.72063 69.115046 
L 73.396807 69.204295 
L 76.074987 68.954177 
L 78.712113 68.365634 
L 81.265406 67.445073 
L 83.693048 66.204311 
L 85.95488 64.660431 
L 88.013053 62.835556 
L 89.832669 60.756531 
L 91.382364 58.454535 
L 92.634851 55.964614 
L 93.567392 53.325146 
L 94.162206 50.577256 
L 94.406799 47.764169 
L 94.294213 44.930534 
L 93.82318 42.121714 
L 92.998198 39.383063 
L 91.829503 36.759186 
L 90.332951 34.293224 
L 88.529814 32.026133 
L 86.446479 29.996017 
L 84.114064 28.23748 
L 81.567959 26.781043 
L 78.847285 25.652618 
L 75.9943 24.87305 
L 73.053737 24.457741 
L 70.072108 24.416357 
L 67.096963 24.752623 
L 64.176138 25.46422 
L 61.35698 26.542766 
L 60 27.21539 
L 60 27.21539 
" clip-path="url(#p0f2ccd5769)" style="fill: none; stroke: #1e88e5; stroke-opacity: 0.6; stroke-width: 2.5; stroke-linecap: square"/>
   </g>
   <g id="line2d_8">
    <path d="M 64.8 60.470766 
L 66.390827 61.367318 
L 68.093417 62.060342 
L 69.881654 62.535903 
L 71.727687 62.783422 
L 73.60236 62.795899 
L 75.475672 62.570071 
L 77.317262 62.106513 
L 79.096896 61.409675 
L 80.784963 60.487861 
L 82.352972 59.35314 
L 83.774026 58.021194 
L 85.023281 56.511108 
L 86.078381 54.8451 
L 86.919852 53.048195 
L 87.531449 51.147853 
L 87.90047 49.173546 
L 88.017997 47.156306 
L 87.87909 45.128233 
L 87.482915 43.121988 
L 86.832805 41.170263 
L 85.936253 39.305253 
L 84.804841 37.558123 
L 83.454096 35.958487 
L 81.903284 34.533913 
L 80.17514 33.309443 
L 78.295533 32.307165 
L 76.293084 31.545812 
L 74.198732 31.040426 
L 72.04525 30.80207 
L 69.866743 30.8376 
L 67.698096 31.149512 
L 65.574425 31.735854 
L 63.530504 32.590202 
L 61.600195 33.701725 
L 59.815891 35.055306 
L 58.207972 36.631745 
L 56.804291 38.408029 
L 55.629693 40.357659 
L 54.70558 42.45105 
L 54.049529 44.655975 
L 53.674965 46.938064 
L 53.590899 49.261333 
L 53.801739 51.588759 
L 54.307166 53.882865 
L 55.102097 56.106326 
L 56.176712 58.222573 
L 57.51657 60.196398 
L 59.102795 61.994534 
L 60.912336 63.58622 
L 62.918302 64.943718 
L 65.090355 66.042797 
L 67.395172 66.863159 
L 69.796953 67.388809 
L 72.257977 67.608353 
L 74.739196 67.515231 
L 77.200851 67.107866 
L 79.603113 66.389744 
L 81.906725 65.369399 
L 84.073642 64.06033 
L 86.067663 62.480827 
L 87.85503 60.653717 
L 89.405 58.606046 
L 90.690368 56.368673 
L 91.687945 53.975808 
L 92.378966 51.464496 
L 92.749439 48.874034 
L 92.790411 46.245366 
L 92.498162 43.620428 
L 91.874314 41.041484 
L 90.925851 38.550444 
L 89.665054 36.188182 
L 88.109356 33.99387 
L 86.2811 32.004322 
L 84.207225 30.253387 
L 81.918872 28.771367 
L 79.450917 27.584504 
L 76.841442 26.714511 
L 74.131145 26.17819 
L 71.362711 25.987113 
L 68.580132 26.147388 
L 65.828016 26.659518 
L 63.150866 27.518339 
L 60.592365 28.713058 
L 58.194658 30.227379 
L 55.997665 32.039715 
L 54.038414 34.123496 
L 52.350419 36.447554 
L 50.963108 38.976587 
L 49.901319 41.671694 
L 49.184854 44.490974 
L 48.828124 47.390173 
L 48.839865 50.323383 
L 49.222957 53.243768 
L 49.974324 56.10431 
L 51.084937 58.858566 
L 52.539912 61.461425 
L 54.3187 63.869843 
L 56.395373 66.043553 
L 58.739001 67.945743 
L 60 68.78461 
L 60 68.78461 
" clip-path="url(#p0f2ccd5769)" style="fill: none; stroke: #1e88e5; stroke-opacity: 0.6; stroke-width: 2.5; stroke-linecap: square"/>
   </g>
   <g id="line2d_9">
    <path d="M 141.6 33.6 
L 141.585504 33.143348 
L 141.542075 32.688534 
L 141.469887 32.237391 
L 141.369231 31.791734 
L 141.240512 31.353359 
L 141.084249 30.92403 
L 140.901071 30.505477 
L 140.691716 30.099384 
L 140.457025 29.707386 
L 140.197946 29.331063 
L 139.91552 28.971929 
L 139.610885 28.631431 
L 139.285268 28.31094 
L 138.939979 28.011745 
L 138.57641 27.735053 
L 138.196023 27.481977 
L 137.800352 27.253536 
L 137.390988 27.05065 
L 136.969581 26.874135 
L 136.537827 26.724704 
L 136.097464 26.602957 
L 135.650267 26.509384 
L 135.198035 26.444363 
L 134.74259 26.408155 
L 134.285765 26.400906 
L 133.8294 26.422646 
L 133.375333 26.473286 
L 132.925392 26.552622 
L 132.481389 26.660336 
L 132.045111 26.795994 
L 131.618315 26.959049 
L 131.20272 27.148845 
L 130.8 27.364617 
L 130.411776 27.605497 
L 130.03961 27.870515 
L 129.685003 28.158603 
L 129.349381 28.468602 
L 129.034096 28.799263 
L 128.740418 29.149255 
L 128.469529 29.517169 
L 128.222519 29.901523 
L 128.000385 30.300769 
L 127.804019 30.7133 
L 127.634213 31.137455 
L 127.491651 31.571526 
L 127.376906 32.013764 
L 127.29044 32.46239 
L 127.232602 32.915596 
L 127.203625 33.371559 
L 127.203625 33.828441 
L 127.232602 34.284404 
L 127.29044 34.73761 
L 127.376906 35.186236 
L 127.491651 35.628474 
L 127.634213 36.062545 
L 127.804019 36.4867 
L 128.000385 36.899231 
L 128.222519 37.298477 
L 128.469529 37.682831 
L 128.740418 38.050745 
L 129.034096 38.400737 
L 129.349381 38.731398 
L 129.685003 39.041397 
L 130.03961 39.329485 
L 130.411776 39.594503 
L 130.8 39.835383 
L 131.20272 40.051155 
L 131.618315 40.240951 
L 132.045111 40.404006 
L 132.481389 40.539664 
L 132.925392 40.647378 
L 133.375333 40.726714 
L 133.8294 40.777354 
L 134.285765 40.799094 
L 134.74259 40.791845 
L 135.198035 40.755637 
L 135.650267 40.690616 
L 136.097464 40.597043 
L 136.537827 40.475296 
L 136.969581 40.325865 
L 137.390988 40.14935 
L 137.800352 39.946464 
L 138.196023 39.718023 
L 138.57641 39.464947 
L 138.939979 39.188255 
L 139.285268 38.88906 
L 139.610885 38.568569 
L 139.91552 38.228071 
L 140.197946 37.868937 
L 140.457025 37.492614 
L 140.691716 37.100616 
L 140.901071 36.694523 
L 141.084249 36.27597 
L 141.240512 35.846641 
L 141.369231 35.408266 
L 141.469887 34.962609 
L 141.542075 34.511466 
L 141.585504 34.056652 
L 141.6 33.6 
" clip-path="url(#p0f2ccd5769)" style="fill: none; stroke: #00acc1; stroke-opacity: 0.5; stroke-width: 1.5; stroke-linecap: square"/>
   </g>
   <g id="line2d_10">
    <path d="M 74.4 67.2 
L 74.385504 66.743348 
L 74.342075 66.288534 
L 74.269887 65.837391 
L 74.169231 65.391734 
L 74.040512 64.953359 
L 73.884249 64.52403 
L 73.701071 64.105477 
L 73.491716 63.699384 
L 73.257025 63.307386 
L 72.997946 62.931063 
L 72.71552 62.571929 
L 72.410885 62.231431 
L 72.085268 61.91094 
L 71.739979 61.611745 
L 71.37641 61.335053 
L 70.996023 61.081977 
L 70.600352 60.853536 
L 70.190988 60.65065 
L 69.769581 60.474135 
L 69.337827 60.324704 
L 68.897464 60.202957 
L 68.450267 60.109384 
L 67.998035 60.044363 
L 67.54259 60.008155 
L 67.085765 60.000906 
L 66.6294 60.022646 
L 66.175333 60.073286 
L 65.725392 60.152622 
L 65.281389 60.260336 
L 64.845111 60.395994 
L 64.418315 60.559049 
L 64.00272 60.748845 
L 63.6 60.964617 
L 63.211776 61.205497 
L 62.83961 61.470515 
L 62.485003 61.758603 
L 62.149381 62.068602 
L 61.834096 62.399263 
L 61.540418 62.749255 
L 61.269529 63.117169 
L 61.022519 63.501523 
L 60.800385 63.900769 
L 60.604019 64.3133 
L 60.434213 64.737455 
L 60.291651 65.171526 
L 60.176906 65.613764 
L 60.09044 66.06239 
L 60.032602 66.515596 
L 60.003625 66.971559 
L 60.003625 67.428441 
L 60.032602 67.884404 
L 60.09044 68.33761 
L 60.176906 68.786236 
L 60.291651 69.228474 
L 60.434213 69.662545 
L 60.604019 70.0867 
L 60.800385 70.499231 
L 61.022519 70.898477 
L 61.269529 71.282831 
L 61.540418 71.650745 
L 61.834096 72.000737 
L 62.149381 72.331398 
L 62.485003 72.641397 
L 62.83961 72.929485 
L 63.211776 73.194503 
L 63.6 73.435383 
L 64.00272 73.651155 
L 64.418315 73.840951 
L 64.845111 74.004006 
L 65.281389 74.139664 
L 65.725392 74.247378 
L 66.175333 74.326714 
L 66.6294 74.377354 
L 67.085765 74.399094 
L 67.54259 74.391845 
L 67.998035 74.355637 
L 68.450267 74.290616 
L 68.897464 74.197043 
L 69.337827 74.075296 
L 69.769581 73.925865 
L 70.190988 73.74935 
L 70.600352 73.546464 
L 70.996023 73.318023 
L 71.37641 73.064947 
L 71.739979 72.788255 
L 72.085268 72.48906 
L 72.410885 72.168569 
L 72.71552 71.828071 
L 72.997946 71.468937 
L 73.257025 71.092614 
L 73.491716 70.700616 
L 73.701071 70.294523 
L 73.884249 69.87597 
L 74.040512 69.446641 
L 74.169231 69.008266 
L 74.269887 68.562609 
L 74.342075 68.111466 
L 74.385504 67.656652 
L 74.4 67.2 
" clip-path="url(#p0f2ccd5769)" style="fill: none; stroke: #00acc1; stroke-opacity: 0.5; stroke-width: 1.5; stroke-linecap: square"/>
   </g>
   <g id="patch_2">
    <path d="M 50.000391 76.8 
Q 55.19969 76.8 58.721938 76.8 
" clip-path="url(#p0f2ccd5769)" style="fill: none; opacity: 0.4; stroke: #00acc1; stroke-width: 1.5; stroke-linecap: round"/>
    <path d="M 52.721938 73.8 
L 58.721938 76.8 
L 52.721938 79.8 
" clip-path="url(#p0f2ccd5769)" style="fill: none; opacity: 0.4; stroke: #00acc1; stroke-width: 1.5; stroke-linecap: round"/>
   </g>
   <g id="patch_3">
    <path d="M 83.600391 81.6 
Q 88.79969 81.6 92.321938 81.6 
" clip-path="url(#p0f2ccd5769)" style="fill: none; opacity: 0.4; stroke: #00acc1; stroke-width: 1.5; stroke-linecap: round"/>
    <path d="M 86.321938 78.6 
L 92.321938 81.6 
L 86.321938 84.6 
" clip-path="url(#p0f2ccd5769)" style="fill: none; opacity: 0.4; stroke: #00acc1; stroke-width: 1.5; stroke-linecap: round"/>
   </g>
   <g id="patch_4">
    <path d="M 117.200391 79.2 
Q 122.39969 79.2 125.921938 79.2 
" clip-path="url(#p0f2ccd5769)" style="fill: none; opacity: 0.4; stroke: #00acc1; stroke-width: 1.5; stroke-linecap: round"/>
    <path d="M 119.921938 76.2 
L 125.921938 79.2 
L 119.921938 82.2 
" clip-path="url(#p0f2ccd5769)" style="fill: none; opacity: 0.4; stroke: #00acc1; stroke-width: 1.5; stroke-linecap: round"/>
   </g>
   <g id="patch_5">
    <path d="M 57.6 25.44 
C 57.981892 25.44 58.348195 25.288273 58.618234 25.018234 
C 58.888273 24.748195 59.04 24.381892 59.04 24 
C 59.04 23.618108 58.888273 23.251805 58.618234 22.981766 
C 58.348195 22.711727 57.981892 22.56 57.6 22.56 
C 57.218108 22.56 56.851805 22.711727 56.581766 22.981766 
C 56.311727 23.251805 56.16 23.618108 56.16 24 
C 56.16 24.381892 56.311727 24.748195 56.581766 25.018234 
C 56.851805 25.288273 57.218108 25.44 57.6 25.44 
z
" clip-path="url(#p0f2ccd5769)" style="fill: #1e88e5; opacity: 0.6; stroke: #1e88e5; stroke-linejoin: miter"/>
   </g>
   <g id="patch_6">
    <path d="M 105.6 20.64 
C 105.981892 20.64 106.348195 20.488273 106.618234 20.218234 
C 106.888273 19.948195 107.04 19.581892 107.04 19.2 
C 107.04 18.818108 106.888273 18.451805 106.618234 18.181766 
C 106.348195 17.911727 105.981892 17.76 105.6 17.76 
C 105.218108 17.76 104.851805 17.911727 104.581766 18.181766 
C 104.311727 18.451805 104.16 18.818108 104.16 19.2 
C 104.16 19.581892 104.311727 19.948195 104.581766 20.218234 
C 104.851805 20.488273 105.218108 20.64 105.6 20.64 
z
" clip-path="url(#p0f2ccd5769)" style="fill: #1e88e5; opacity: 0.6; stroke: #1e88e5; stroke-linejoin: miter"/>
   </g>
   <g id="patch_7">
    <path d="M 144 30.24 
C 144.381892 30.24 144.748195 30.088273 145.018234 29.818234 
C 145.288273 29.548195 145.44 29.181892 145.44 28.8 
C 145.44 28.418108 145.288273 28.051805 145.018234 27.781766 
C 144.748195 27.511727 144.381892 27.36 144 27.36 
C 143.618108 27.36 143.251805 27.511727 142.981766 27.781766 
C 142.711727 28.051805 142.56 28.418108 142.56 28.8 
C 142.56 29.181892 142.711727 29.548195 142.981766 29.818234 
C 143.251805 30.088273 143.618108 30.24 144 30.24 
z
" clip-path="url(#p0f2ccd5769)" style="fill: #1e88e5; opacity: 0.6; stroke: #1e88e5; stroke-linejoin: miter"/>
   </g>
   <g id="text_1">
    <!-- IK-TURB -->
    <g style="fill: #0d47a1" transform="translate(28.8 52.389375) scale(0.42 -0.42)">
     <defs>
      <path id="DejaVuSans-Bold-49" d="M 588 4666 
L 1791 4666 
L 1791 0 
L 588 0 
L 588 4666 
z
" transform="scale(0.015625)"/>
      <path id="DejaVuSans-Bold-4b" d="M 588 4666 
L 1791 4666 
L 1791 2963 
L 3525 4666 
L 4922 4666 
L 2675 2456 
L 5153 0 
L 3647 0 
L 1791 1838 
L 1791 0 
L 588 0 
L 588 4666 
z
" transform="scale(0.015625)"/>
      <path id="DejaVuSans-Bold-2d" d="M 347 2297 
L 2309 2297 
L 2309 1388 
L 347 1388 
L 347 2297 
z
" transform="scale(0.015625)"/>
      <path id="DejaVuSans-Bold-54" d="M 31 4666 
L 4331 4666 
L 4331 3756 
L 2784 3756 
L 2784 0 
L 1581 0 
L 1581 3756 
L 31 3756 
L 31 4666 
z
" transform="scale(0.015625)"/>
      <path id="DejaVuSans-Bold-55" d="M 588 4666 
L 1791 4666 
L 1791 1869 
Q 1791 1291 1980 1042 
Q 2169 794 2597 794 
Q 3028 794 3217 1042 
Q 3406 1291 3406 1869 
L 3406 4666 
L 4609 4666 
L 4609 1869 
Q 4609 878 4112 393 
Q 3616 -91 2597 -91 
Q 1581 -91 1084 393 
Q 588 878 588 1869 
L 588 4666 
z
" transform="scale(0.015625)"/>
      <path id="DejaVuSans-Bold-52" d="M 2297 2597 
Q 2675 2597 2839 2737 
Q 3003 2878 3003 3200 
Q 3003 3519 2839 3656 
Q 2675 3794 2297 3794 
L 1791 3794 
L 1791 2597 
L 2297 2597 
z
M 1791 1766 
L 1791 0 
L 588 0 
L 588 4666 
L 2425 4666 
Q 3347 4666 3776 4356 
Q 4206 4047 4206 3378 
Q 4206 2916 3982 2619 
Q 3759 2322 3309 2181 
Q 3556 2125 3751 1926 
Q 3947 1728 4147 1325 
L 4800 0 
L 3519 0 
L 2950 1159 
Q 2778 1509 2601 1637 
Q 2425 1766 2131 1766 
L 1791 1766 
z
" transform="scale(0.015625)"/>
      <path id="DejaVuSans-Bold-42" d="M 2456 2859 
Q 2741 2859 2887 2984 
Q 3034 3109 3034 3353 
Q 3034 3594 2887 3720 
Q 2741 3847 2456 3847 
L 1791 3847 
L 1791 2859 
L 2456 2859 
z
M 2497 819 
Q 2859 819 3042 972 
Q 3225 1125 3225 1434 
Q 3225 1738 3044 1889 
Q 2863 2041 2497 2041 
L 1791 2041 
L 1791 819 
L 2497 819 
z
M 3616 2497 
Q 4003 2384 4215 2081 
Q 4428 1778 4428 1338 
Q 4428 663 3972 331 
Q 3516 0 2584 0 
L 588 0 
L 588 4666 
L 2394 4666 
Q 3366 4666 3802 4372 
Q 4238 4078 4238 3431 
Q 4238 3091 4078 2852 
Q 3919 2613 3616 2497 
z
" transform="scale(0.015625)"/>
     </defs>
     <use xlink:href="#DejaVuSans-Bold-49"/>
     <use xlink:href="#DejaVuSans-Bold-4b" transform="translate(37.207031 0)"/>
     <use xlink:href="#DejaVuSans-Bold-2d" transform="translate(105.947266 0)"/>
     <use xlink:href="#DejaVuSans-Bold-54" transform="translate(132.701172 0)"/>
     <use xlink:href="#DejaVuSans-Bold-55" transform="translate(200.914062 0)"/>
     <use xlink:href="#DejaVuSans-Bold-52" transform="translate(282.115234 0)"/>
     <use xlink:href="#DejaVuSans-Bold-42" transform="translate(359.117188 0)"/>
    </g>
   </g>
   <g id="text_2">
    <!-- 3D -->
    <g style="fill: #1e88e5" transform="translate(110.4 49.63) scale(0.32 -0.32)">
     <defs>
      <path id="DejaVuSans-Bold-33" d="M 2981 2516 
Q 3453 2394 3698 2092 
Q 3944 1791 3944 1325 
Q 3944 631 3412 270 
Q 2881 -91 1863 -91 
Q 1503 -91 1142 -33 
Q 781 25 428 141 
L 428 1069 
Q 766 900 1098 814 
Q 1431 728 1753 728 
Q 2231 728 2486 893 
Q 2741 1059 2741 1369 
Q 2741 1688 2480 1852 
Q 2219 2016 1709 2016 
L 1228 2016 
L 1228 2791 
L 1734 2791 
Q 2188 2791 2409 2933 
Q 2631 3075 2631 3366 
Q 2631 3634 2415 3781 
Q 2200 3928 1806 3928 
Q 1516 3928 1219 3862 
Q 922 3797 628 3669 
L 628 4550 
Q 984 4650 1334 4700 
Q 1684 4750 2022 4750 
Q 2931 4750 3382 4451 
Q 3834 4153 3834 3553 
Q 3834 3144 3618 2883 
Q 3403 2622 2981 2516 
z
" transform="scale(0.015625)"/>
      <path id="DejaVuSans-Bold-44" d="M 1791 3756 
L 1791 909 
L 2222 909 
Q 2959 909 3348 1275 
Q 3738 1641 3738 2338 
Q 3738 3031 3350 3393 
Q 2963 3756 2222 3756 
L 1791 3756 
z
M 588 4666 
L 1856 4666 
Q 2919 4666 3439 4514 
Q 3959 4363 4331 4000 
Q 4659 3684 4818 3271 
Q 4978 2859 4978 2338 
Q 4978 1809 4818 1395 
Q 4659 981 4331 666 
Q 3956 303 3431 151 
Q 2906 0 1856 0 
L 588 0 
L 588 4666 
z
" transform="scale(0.015625)"/>
     </defs>
     <use xlink:href="#DejaVuSans-Bold-33"/>
     <use xlink:href="#DejaVuSans-Bold-44" transform="translate(69.580078 0)"/>
    </g>
   </g>
   <g id="text_3">
    <!-- Turbulence Visualization &amp; Analysis Suite -->
    <g style="fill: #004d40" transform="translate(28.8 63.31125) scale(0.12 -0.12)">
     <defs>
      <path id="DejaVuSans-Oblique-54" d="M 378 4666 
L 4325 4666 
L 4225 4134 
L 2559 4134 
L 1759 0 
L 1125 0 
L 1925 4134 
L 275 4134 
L 378 4666 
z
" transform="scale(0.015625)"/>
      <path id="DejaVuSans-Oblique-75" d="M 428 1388 
L 838 3500 
L 1416 3500 
L 1006 1409 
Q 975 1256 961 1147 
Q 947 1038 947 966 
Q 947 700 1109 554 
Q 1272 409 1569 409 
Q 2031 409 2368 721 
Q 2706 1034 2809 1563 
L 3194 3500 
L 3769 3500 
L 3091 0 
L 2516 0 
L 2631 550 
Q 2388 244 2052 76 
Q 1716 -91 1338 -91 
Q 878 -91 622 161 
Q 366 413 366 863 
Q 366 956 381 1097 
Q 397 1238 428 1388 
z
" transform="scale(0.015625)"/>
      <path id="DejaVuSans-Oblique-72" d="M 2853 2969 
Q 2766 3016 2653 3041 
Q 2541 3066 2413 3066 
Q 1953 3066 1609 2717 
Q 1266 2369 1153 1784 
L 800 0 
L 225 0 
L 909 3500 
L 1484 3500 
L 1375 2956 
Q 1603 3259 1920 3421 
Q 2238 3584 2597 3584 
Q 2691 3584 2781 3573 
Q 2872 3563 2963 3538 
L 2853 2969 
z
" transform="scale(0.015625)"/>
      <path id="DejaVuSans-Oblique-62" d="M 3169 2138 
Q 3169 2591 2961 2847 
Q 2753 3103 2388 3103 
Q 2122 3103 1889 2973 
Q 1656 2844 1484 2597 
Q 1303 2338 1198 1995 
Q 1094 1653 1094 1313 
Q 1094 881 1298 636 
Q 1503 391 1863 391 
Q 2134 391 2365 517 
Q 2597 644 2772 891 
Q 2950 1147 3059 1487 
Q 3169 1828 3169 2138 
z
M 1381 2969 
Q 1594 3256 1914 3420 
Q 2234 3584 2584 3584 
Q 3122 3584 3439 3221 
Q 3756 2859 3756 2241 
Q 3756 1734 3570 1259 
Q 3384 784 3041 416 
Q 2816 172 2522 40 
Q 2228 -91 1906 -91 
Q 1566 -91 1316 65 
Q 1066 222 909 531 
L 806 0 
L 231 0 
L 1178 4863 
L 1753 4863 
L 1381 2969 
z
" transform="scale(0.015625)"/>
      <path id="DejaVuSans-Oblique-6c" d="M 1172 4863 
L 1747 4863 
L 800 0 
L 225 0 
L 1172 4863 
z
" transform="scale(0.015625)"/>
      <path id="DejaVuSans-Oblique-65" d="M 3078 2063 
Q 3088 2113 3092 2166 
Q 3097 2219 3097 2272 
Q 3097 2653 2873 2875 
Q 2650 3097 2266 3097 
Q 1838 3097 1509 2826 
Q 1181 2556 1013 2059 
L 3078 2063 
z
M 3578 1613 
L 903 1613 
Q 884 1494 878 1425 
Q 872 1356 872 1306 
Q 872 872 1139 634 
Q 1406 397 1894 397 
Q 2269 397 2603 481 
Q 2938 566 3225 728 
L 3116 159 
Q 2806 34 2476 -28 
Q 2147 -91 1806 -91 
Q 1078 -91 686 257 
Q 294 606 294 1247 
Q 294 1794 489 2264 
Q 684 2734 1063 3103 
Q 1306 3334 1642 3459 
Q 1978 3584 2356 3584 
Q 2950 3584 3301 3228 
Q 3653 2872 3653 2272 
Q 3653 2128 3634 1964 
Q 3616 1800 3578 1613 
z
" transform="scale(0.015625)"/>
      <path id="DejaVuSans-Oblique-6e" d="M 3566 2113 
L 3156 0 
L 2578 0 
L 2988 2091 
Q 3016 2238 3031 2350 
Q 3047 2463 3047 2528 
Q 3047 2791 2881 2937 
Q 2716 3084 2419 3084 
Q 1956 3084 1622 2776 
Q 1288 2469 1184 1941 
L 800 0 
L 225 0 
L 903 3500 
L 1478 3500 
L 1363 2950 
Q 1603 3253 1940 3418 
Q 2278 3584 2650 3584 
Q 3113 3584 3367 3334 
Q 3622 3084 3622 2631 
Q 3622 2519 3608 2391 
Q 3594 2263 3566 2113 
z
" transform="scale(0.015625)"/>
      <path id="DejaVuSans-Oblique-63" d="M 3431 3366 
L 3316 2797 
Q 3109 2947 2876 3022 
Q 2644 3097 2394 3097 
Q 2119 3097 1870 3000 
Q 1622 2903 1453 2725 
Q 1184 2453 1037 2087 
Q 891 1722 891 1331 
Q 891 859 1127 628 
Q 1363 397 1844 397 
Q 2081 397 2348 469 
Q 2616 541 2906 684 
L 2797 116 
Q 2547 13 2283 -39 
Q 2019 -91 1741 -91 
Q 1044 -91 669 257 
Q 294 606 294 1253 
Q 294 1797 489 2255 
Q 684 2713 1069 3078 
Q 1331 3328 1684 3456 
Q 2038 3584 2456 3584 
Q 2700 3584 2940 3529 
Q 3181 3475 3431 3366 
z
" transform="scale(0.015625)"/>
      <path id="DejaVuSans-Oblique-20" transform="scale(0.015625)"/>
      <path id="DejaVuSans-Oblique-56" d="M 1319 0 
L 500 4666 
L 1119 4666 
L 1797 653 
L 4063 4666 
L 4750 4666 
L 2053 0 
L 1319 0 
z
" transform="scale(0.015625)"/>
      <path id="DejaVuSans-Oblique-69" d="M 1172 4863 
L 1747 4863 
L 1606 4134 
L 1031 4134 
L 1172 4863 
z
M 909 3500 
L 1484 3500 
L 800 0 
L 225 0 
L 909 3500 
z
" transform="scale(0.015625)"/>
      <path id="DejaVuSans-Oblique-73" d="M 3200 3397 
L 3091 2853 
Q 2863 2978 2609 3040 
Q 2356 3103 2088 3103 
Q 1634 3103 1373 2948 
Q 1113 2794 1113 2528 
Q 1113 2219 1719 2053 
Q 1766 2041 1788 2034 
L 1972 1978 
Q 2547 1819 2739 1644 
Q 2931 1469 2931 1166 
Q 2931 609 2489 259 
Q 2047 -91 1331 -91 
Q 1053 -91 747 -37 
Q 441 16 72 128 
L 184 722 
Q 500 559 806 475 
Q 1113 391 1394 391 
Q 1816 391 2080 572 
Q 2344 753 2344 1031 
Q 2344 1331 1650 1516 
L 1591 1531 
L 1394 1581 
Q 956 1697 753 1886 
Q 550 2075 550 2369 
Q 550 2928 970 3256 
Q 1391 3584 2113 3584 
Q 2397 3584 2667 3537 
Q 2938 3491 3200 3397 
z
" transform="scale(0.015625)"/>
      <path id="DejaVuSans-Oblique-61" d="M 3438 1997 
L 3047 0 
L 2472 0 
L 2578 531 
Q 2325 219 2001 64 
Q 1678 -91 1281 -91 
Q 834 -91 548 182 
Q 263 456 263 884 
Q 263 1497 752 1853 
Q 1241 2209 2100 2209 
L 2900 2209 
L 2931 2363 
Q 2938 2388 2941 2417 
Q 2944 2447 2944 2509 
Q 2944 2788 2717 2942 
Q 2491 3097 2081 3097 
Q 1800 3097 1504 3025 
Q 1209 2953 897 2809 
L 997 3341 
Q 1322 3463 1633 3523 
Q 1944 3584 2234 3584 
Q 2853 3584 3176 3315 
Q 3500 3047 3500 2534 
Q 3500 2431 3484 2292 
Q 3469 2153 3438 1997 
z
M 2816 1759 
L 2241 1759 
Q 1534 1759 1195 1570 
Q 856 1381 856 984 
Q 856 709 1029 553 
Q 1203 397 1509 397 
Q 1978 397 2328 733 
Q 2678 1069 2791 1631 
L 2816 1759 
z
" transform="scale(0.015625)"/>
      <path id="DejaVuSans-Oblique-7a" d="M 744 3500 
L 3475 3500 
L 3372 2975 
L 738 459 
L 2913 459 
L 2822 0 
L -19 0 
L 84 525 
L 2719 3041 
L 653 3041 
L 744 3500 
z
" transform="scale(0.015625)"/>
      <path id="DejaVuSans-Oblique-74" d="M 2706 3500 
L 2619 3053 
L 1472 3053 
L 1100 1153 
Q 1081 1047 1072 975 
Q 1063 903 1063 863 
Q 1063 663 1183 572 
Q 1303 481 1569 481 
L 2150 481 
L 2053 0 
L 1503 0 
Q 991 0 739 200 
Q 488 400 488 806 
Q 488 878 497 964 
Q 506 1050 525 1153 
L 897 3053 
L 409 3053 
L 500 3500 
L 978 3500 
L 1172 4494 
L 1747 4494 
L 1556 3500 
L 2706 3500 
z
" transform="scale(0.015625)"/>
      <path id="DejaVuSans-Oblique-6f" d="M 1625 -91 
Q 1009 -91 651 289 
Q 294 669 294 1325 
Q 294 1706 417 2101 
Q 541 2497 738 2766 
Q 1047 3184 1428 3384 
Q 1809 3584 2291 3584 
Q 2888 3584 3255 3212 
Q 3622 2841 3622 2241 
Q 3622 1825 3500 1412 
Q 3378 1000 3181 728 
Q 2875 309 2494 109 
Q 2113 -91 1625 -91 
z
M 891 1344 
Q 891 869 1089 633 
Q 1288 397 1691 397 
Q 2269 397 2648 901 
Q 3028 1406 3028 2181 
Q 3028 2634 2825 2865 
Q 2622 3097 2228 3097 
Q 1903 3097 1650 2945 
Q 1397 2794 1197 2484 
Q 1050 2253 970 1956 
Q 891 1659 891 1344 
z
" transform="scale(0.015625)"/>
      <path id="DejaVuSans-Oblique-26" d="M 3022 813 
L 1691 2509 
Q 1313 2234 1117 1925 
Q 922 1616 922 1294 
Q 922 897 1189 656 
Q 1456 416 1900 416 
Q 2194 416 2480 517 
Q 2766 619 3022 813 
z
M 4709 2503 
Q 4569 2006 4339 1593 
Q 4109 1181 3788 844 
L 4441 0 
L 3653 0 
L 3322 434 
Q 2991 175 2609 42 
Q 2228 -91 1813 -91 
Q 1122 -91 711 250 
Q 300 591 300 1153 
Q 300 1634 589 2062 
Q 878 2491 1447 2853 
Q 1350 2997 1304 3145 
Q 1259 3294 1259 3463 
Q 1259 3675 1331 3865 
Q 1403 4056 1538 4213 
Q 1753 4469 2078 4609 
Q 2403 4750 2778 4750 
Q 3022 4750 3269 4694 
Q 3516 4638 3769 4525 
L 3659 3956 
Q 3425 4103 3192 4179 
Q 2959 4256 2741 4256 
Q 2353 4256 2111 4054 
Q 1869 3853 1869 3541 
Q 1869 3403 1928 3268 
Q 1988 3134 2203 2859 
L 3475 1234 
Q 3709 1481 3875 1801 
Q 4041 2122 4128 2503 
L 4709 2503 
z
" transform="scale(0.015625)"/>
      <path id="DejaVuSans-Oblique-41" d="M 2356 4666 
L 3072 4666 
L 3938 0 
L 3278 0 
L 3084 1197 
L 984 1197 
L 325 0 
L -341 0 
L 2356 4666 
z
M 2584 4044 
L 1275 1722 
L 2988 1722 
L 2584 4044 
z
" transform="scale(0.015625)"/>
      <path id="DejaVuSans-Oblique-79" d="M 1588 -325 
Q 1188 -997 936 -1164 
Q 684 -1331 294 -1331 
L -159 -1331 
L -63 -850 
L 269 -850 
Q 509 -850 678 -719 
Q 847 -588 1056 -206 
L 1234 128 
L 459 3500 
L 1069 3500 
L 1650 819 
L 3256 3500 
L 3859 3500 
L 1588 -325 
z
" transform="scale(0.015625)"/>
      <path id="DejaVuSans-Oblique-53" d="M 3859 4513 
L 3738 3897 
Q 3422 4066 3111 4152 
Q 2800 4238 2509 4238 
Q 1944 4238 1609 3991 
Q 1275 3744 1275 3334 
Q 1275 3109 1398 2989 
Q 1522 2869 2034 2731 
L 2413 2638 
Q 3053 2472 3303 2217 
Q 3553 1963 3553 1503 
Q 3553 797 2998 353 
Q 2444 -91 1538 -91 
Q 1166 -91 791 -17 
Q 416 56 38 206 
L 166 856 
Q 513 641 861 531 
Q 1209 422 1556 422 
Q 2147 422 2503 684 
Q 2859 947 2859 1369 
Q 2859 1650 2717 1795 
Q 2575 1941 2106 2059 
L 1728 2156 
Q 1081 2325 845 2545 
Q 609 2766 609 3163 
Q 609 3859 1145 4304 
Q 1681 4750 2541 4750 
Q 2875 4750 3203 4690 
Q 3531 4631 3859 4513 
z
" transform="scale(0.015625)"/>
     </defs>
     <use xlink:href="#DejaVuSans-Oblique-54"/>
     <use xlink:href="#DejaVuSans-Oblique-75" transform="translate(51.083984 0)"/>
     <use xlink:href="#DejaVuSans-Oblique-72" transform="translate(114.462891 0)"/>
     <use xlink:href="#DejaVuSans-Oblique-62" transform="translate(155.576172 0)"/>
     <use xlink:href="#DejaVuSans-Oblique-75" transform="translate(219.052734 0)"/>
     <use xlink:href="#DejaVuSans-Oblique-6c" transform="translate(282.431641 0)"/>
     <use xlink:href="#DejaVuSans-Oblique-65" transform="translate(310.214844 0)"/>
     <use xlink:href="#DejaVuSans-Oblique-6e" transform="translate(371.738281 0)"/>
     <use xlink:href="#DejaVuSans-Oblique-63" transform="translate(435.117188 0)"/>
     <use xlink:href="#DejaVuSans-Oblique-65" transform="translate(490.097656 0)"/>
     <use xlink:href="#DejaVuSans-Oblique-20" transform="translate(551.621094 0)"/>
     <use xlink:href="#DejaVuSans-Oblique-56" transform="translate(583.408203 0)"/>
     <use xlink:href="#DejaVuSans-Oblique-69" transform="translate(651.816406 0)"/>
     <use xlink:href="#DejaVuSans-Oblique-73" transform="translate(679.599609 0)"/>
     <use xlink:href="#DejaVuSans-Oblique-75" transform="translate(731.699219 0)"/>
     <use xlink:href="#DejaVuSans-Oblique-61" transform="translate(795.078125 0)"/>
     <use xlink:href="#DejaVuSans-Oblique-6c" transform="translate(856.357422 0)"/>
     <use xlink:href="#DejaVuSans-Oblique-69" transform="translate(884.140625 0)"/>
     <use xlink:href="#DejaVuSans-Oblique-7a" transform="translate(911.923828 0)"/>
     <use xlink:href="#DejaVuSans-Oblique-61" transform="translate(964.414062 0)"/>
     <use xlink:href="#DejaVuSans-Oblique-74" transform="translate(1025.693359 0)"/>
     <use xlink:href="#DejaVuSans-Oblique-69" transform="translate(1064.902344 0)"/>
     <use xlink:href="#DejaVuSans-Oblique-6f" transform="translate(1092.685547 0)"/>
     <use xlink:href="#DejaVuSans-Oblique-6e" transform="translate(1153.867188 0)"/>
     <use xlink:href="#DejaVuSans-Oblique-20" transform="translate(1217.246094 0)"/>
     <use xlink:href="#DejaVuSans-Oblique-26" transform="translate(1249.033203 0)"/>
     <use xlink:href="#DejaVuSans-Oblique-20" transform="translate(1327.011719 0)"/>
     <use xlink:href="#DejaVuSans-Oblique-41" transform="translate(1358.798828 0)"/>
     <use xlink:href="#DejaVuSans-Oblique-6e" transform="translate(1427.207031 0)"/>
     <use xlink:href="#DejaVuSans-Oblique-61" transform="translate(1490.585938 0)"/>
     <use xlink:href="#DejaVuSans-Oblique-6c" transform="translate(1551.865234 0)"/>
     <use xlink:href="#DejaVuSans-Oblique-79" transform="translate(1579.648438 0)"/>
     <use xlink:href="#DejaVuSans-Oblique-73" transform="translate(1638.828125 0)"/>
     <use xlink:href="#DejaVuSans-Oblique-69" transform="translate(1690.927734 0)"/>
     <use xlink:href="#DejaVuSans-Oblique-73" transform="translate(1718.710938 0)"/>
     <use xlink:href="#DejaVuSans-Oblique-20" transform="translate(1770.810547 0)"/>
     <use xlink:href="#DejaVuSans-Oblique-53" transform="translate(1802.597656 0)"/>
     <use xlink:href="#DejaVuSans-Oblique-75" transform="translate(1866.074219 0)"/>
     <use xlink:href="#DejaVuSans-Oblique-69" transform="translate(1929.453125 0)"/>
     <use xlink:href="#DejaVuSans-Oblique-74" transform="translate(1957.236328 0)"/>
     <use xlink:href="#DejaVuSans-Oblique-65" transform="translate(1996.445312 0)"/>
    </g>
   </g>
  </g>
 </g>
 <defs>
  <clipPath id="p0f2ccd5769">
   <rect x="0" y="0" width="192" height="96"/>
  </clipPath>
 </defs>
</svg>
