<svg class="main-svg" xmlns="http://www.w3.org/2000/svg" xmlns:xlink="http://www.w3.org/1999/xlink" width="4200" height="3000" style="" viewBox="0 0 700 500"><rect x="0" y="0" width="700" height="500" style="fill: rgb(255, 255, 255); fill-opacity: 1;"/><defs id="defs-4a276d"><g class="clips"><clipPath id="clip4a276dxyplot" class="plotclip"><rect width="445" height="399"/></clipPath><clipPath class="axesclip" id="clip4a276dx"><rect x="65" y="0" width="445" height="500"/></clipPath><clipPath class="axesclip" id="clip4a276dy"><rect x="0" y="40" width="700" height="399"/></clipPath><clipPath class="axesclip" id="clip4a276dxy"><rect x="65" y="40" width="445" height="399"/></clipPath></g><g class="gradients"/><g class="patterns"/></defs><g class="bglayer"/><g class="layer-below"><g class="imagelayer"/><g class="shapelayer"/></g><g class="cartesianlayer"><g class="subplot xy"><g class="layer-subplot"><g class="shapelayer"/><g class="imagelayer"/></g><g class="minor-gridlayer"><g class="x"/><g class="y"/></g><g class="gridlayer"><g class="x"><path class="xgrid crisp" transform="translate(254.5,0)" d="M0,40v399" style="stroke: rgb(176, 176, 176); stroke-opacity: 0.6; stroke-dasharray: 3px, 3px; stroke-width: 0.6px;"/><path class="xgrid crisp" transform="translate(444,0)" d="M0,40v399" style="stroke: rgb(176, 176, 176); stroke-opacity: 0.6; stroke-dasharray: 3px, 3px; stroke-width: 0.6px;"/></g><g class="y"><path class="ygrid crisp" transform="translate(0,359.2)" d="M65,0h445" style="stroke: rgb(176, 176, 176); stroke-opacity: 0.6; stroke-dasharray: 3px, 3px; stroke-width: 0.6px;"/><path class="ygrid crisp" transform="translate(0,279.4)" d="M65,0h445" style="stroke: rgb(176, 176, 176); stroke-opacity: 0.6; stroke-dasharray: 3px, 3px; stroke-width: 0.6px;"/><path class="ygrid crisp" transform="translate(0,199.6)" d="M65,0h445" style="stroke: rgb(176, 176, 176); stroke-opacity: 0.6; stroke-dasharray: 3px, 3px; stroke-width: 0.6px;"/><path class="ygrid crisp" transform="translate(0,119.8)" d="M65,0h445" style="stroke: rgb(176, 176, 176); stroke-opacity: 0.6; stroke-dasharray: 3px, 3px; stroke-width: 0.6px;"/></g></g><g class="zerolinelayer"/><g class="layer-between"><g class="shapelayer"/><g class="imagelayer"/></g><path class="xlines-below"/><path class="ylines-below"/><g class="overlines-below"/><g class="xaxislayer-below"/><g class="yaxislayer-below"/><g class="overaxes-below"/><g class="overplot"><g class="xy" transform="translate(65,40)" clip-path="url(#clip4a276dxyplot)"><g class="scatterlayer mlayer"><g class="trace scatter trace59175c" style="stroke-miterlimit: 2; opacity: 1;"><g class="fills"/><g class="errorbars"/><g class="lines"><path class="js-line" d="M0,189.05L57.04,222.57L90.41,166.03L114.09,240.23L132.45,217.72L147.46,224.35L160.14,223.29L171.13,230.14L180.83,228.2L189.5,215.61L197.34,227.12L204.5,228.35L211.09,225.29L217.19,221.16L222.87,227.55L228.18,230.02L233.17,220.76L237.87,220.2L242.32,221.95L246.54,228.92L250.56,222.63L254.39,221.14L258.05,223.94L261.55,225.38L264.91,225.32L268.14,219.14L271.24,221.38L274.23,223.12L277.12,220.28L279.91,222.11L282.61,219.31L285.22,219.66L287.76,223.68L290.21,217.14L292.6,218.58L294.92,220.78L297.17,217.52L301.5,217.7L303.59,223.31L305.62,214.77L307.6,215.9L309.54,217.1L311.43,216.86L313.28,216.87L315.09,210.4L316.86,219.78L318.59,217.97L320.29,215.91L321.95,211.03L325.18,217.9L326.75,211.12L328.29,211.68L329.8,213.85L331.28,217.34L332.74,212.42L334.17,207.45L335.57,215.9L339.66,208.49L340.97,209.98L342.27,219.58L343.54,207.89L344.8,207.83L346.04,210.8L347.26,209.94L348.46,211.74L349.64,202.8L350.81,213.17L353.1,208.8L354.22,208.47L355.32,204.57L356.41,212.73L357.49,204.43L358.55,206.21L359.6,208.96L360.63,208.22L361.65,208.68L362.66,204.31L363.66,204.41L364.65,207.56L365.62,208.39L366.58,201.33L368.48,206.7L369.41,206.64L371.24,201.16L372.13,204.99L373.9,201.08L374.78,203.71L375.64,206.62L376.49,205.69L378.17,197.09L379,205.88L379.82,201.43L380.63,201.85L381.43,195.04L382.22,204.56L383.01,205.75L383.79,192.21L385.33,203.32L386.09,200.24L386.84,191.36L387.59,200.46L388.32,202.71L389.06,198.79L389.78,194.08L390.5,196.45L391.21,203.71L391.92,192.26L392.62,191.35L393.31,200.36L394,199.87L394.68,192.68L396.03,193.8L396.7,197.8L398.02,187.84L398.67,195.58L399.31,196.11L399.95,193.03L400.59,185.27L401.22,195.88L402.47,185.82L403.08,190.59L403.69,187.76L404.3,194.81L405.5,181.75L406.1,190.26L408.43,179.62L409.01,187.59L410.7,179.94L411.26,180.82L411.82,180.19L412.37,176.06L412.91,176.48L413.46,178.73L414,181.25L414.53,172.98L415.06,170.75L415.59,180.9L416.64,167.34L417.16,173.82L417.68,179.9L418.19,167.94L418.7,166.08L419.21,169.75L419.71,171.45L420.21,168.55L420.71,163.75L421.2,174.19L421.69,164.99L422.18,170.59L423.15,162.39L423.63,170.98L424.58,160.01L425.05,163.78L425.52,170.99L425.99,163.96L426.45,164.3L426.91,162.08L427.37,167.35L427.83,161.42L428.28,159.22L428.73,163.36L429.18,163.93L429.63,160.64L430.07,159.2L430.51,160.49L431.39,154.69L431.82,157.96L432.25,162.45L432.68,151.7L433.11,157.05L433.53,154.97L433.96,150.63L434.38,155.52L434.8,150.14L435.21,149.18L435.63,145.65L436.04,152.18L436.45,151.86L436.86,140.12L437.67,152.99L438.07,137.43L438.47,139.24L438.87,148.72L440.06,133.96L440.45,139.88L440.84,139.33L441.22,132.61L442.38,136.32L442.76,130.83L443.51,129.5L443.89,132.73L444.63,124.04L445,131.39" style="vector-effect: none; fill: none; stroke: rgb(99, 110, 250); stroke-opacity: 1; stroke-width: 2.2px; opacity: 1;"/></g><g class="points"/><g class="text"/></g></g></g></g><g class="zerolinelayer-above"/><path class="xlines-above crisp" d="M64.2,439.4H510.8M64.2,39.6H510.8" style="fill: none; stroke-width: 0.8px; stroke: rgb(0, 0, 0); stroke-opacity: 1;"/><path class="ylines-above crisp" d="M64.6,40V439M510.4,40V439" style="fill: none; stroke-width: 0.8px; stroke: rgb(0, 0, 0); stroke-opacity: 1;"/><g class="overlines-above"/><g class="xaxislayer-above"><path class="xtick ticks crisp" d="M0,439.79999999999995v3.5999999999999996M0,39.2v-3.5999999999999996" transform="translate(122.03999999999999,0)" style="stroke: rgb(0, 0, 0); stroke-opacity: 1; stroke-width: 1.2px;"/><path class="xtick ticks crisp" d="M0,439.79999999999995v3.5999999999999996M0,39.2v-3.5999999999999996" transform="translate(155.41,0)" style="stroke: rgb(0, 0, 0); stroke-opacity: 1; stroke-width: 1.2px;"/><path class="xtick ticks crisp" d="M0,439.79999999999995v3.5999999999999996M0,39.2v-3.5999999999999996" transform="translate(179.09,0)" style="stroke: rgb(0, 0, 0); stroke-opacity: 1; stroke-width: 1.2px;"/><path class="xtick ticks crisp" d="M0,439.79999999999995v3.5999999999999996M0,39.2v-3.5999999999999996" transform="translate(197.45,0)" style="stroke: rgb(0, 0, 0); stroke-opacity: 1; stroke-width: 1.2px;"/><path class="xtick ticks crisp" d="M0,439.79999999999995v3.5999999999999996M0,39.2v-3.5999999999999996" transform="translate(212.46,0)" style="stroke: rgb(0, 0, 0); stroke-opacity: 1; stroke-width: 1.2px;"/><path class="xtick ticks crisp" d="M0,439.79999999999995v3.5999999999999996M0,39.2v-3.5999999999999996" transform="translate(225.14,0)" style="stroke: rgb(0, 0, 0); stroke-opacity: 1; stroke-width: 1.2px;"/><path class="xtick ticks crisp" d="M0,439.79999999999995v3.5999999999999996M0,39.2v-3.5999999999999996" transform="translate(236.13,0)" style="stroke: rgb(0, 0, 0); stroke-opacity: 1; stroke-width: 1.2px;"/><path class="xtick ticks crisp" d="M0,439.79999999999995v3.5999999999999996M0,39.2v-3.5999999999999996" transform="translate(245.83,0)" style="stroke: rgb(0, 0, 0); stroke-opacity: 1; stroke-width: 1.2px;"/><path class="xtick ticks crisp" d="M0,439.79999999999995v3.5999999999999996M0,39.2v-3.5999999999999996" transform="translate(311.53999999999996,0)" style="stroke: rgb(0, 0, 0); stroke-opacity: 1; stroke-width: 1.2px;"/><path class="xtick ticks crisp" d="M0,439.79999999999995v3.5999999999999996M0,39.2v-3.5999999999999996" transform="translate(344.91,0)" style="stroke: rgb(0, 0, 0); stroke-opacity: 1; stroke-width: 1.2px;"/><path class="xtick ticks crisp" d="M0,439.79999999999995v3.5999999999999996M0,39.2v-3.5999999999999996" transform="translate(368.59,0)" style="stroke: rgb(0, 0, 0); stroke-opacity: 1; stroke-width: 1.2px;"/><path class="xtick ticks crisp" d="M0,439.79999999999995v3.5999999999999996M0,39.2v-3.5999999999999996" transform="translate(386.95,0)" style="stroke: rgb(0, 0, 0); stroke-opacity: 1; stroke-width: 1.2px;"/><path class="xtick ticks crisp" d="M0,439.79999999999995v3.5999999999999996M0,39.2v-3.5999999999999996" transform="translate(401.96,0)" style="stroke: rgb(0, 0, 0); stroke-opacity: 1; stroke-width: 1.2px;"/><path class="xtick ticks crisp" d="M0,439.79999999999995v3.5999999999999996M0,39.2v-3.5999999999999996" transform="translate(414.64,0)" style="stroke: rgb(0, 0, 0); stroke-opacity: 1; stroke-width: 1.2px;"/><path class="xtick ticks crisp" d="M0,439.79999999999995v3.5999999999999996M0,39.2v-3.5999999999999996" transform="translate(425.63,0)" style="stroke: rgb(0, 0, 0); stroke-opacity: 1; stroke-width: 1.2px;"/><path class="xtick ticks crisp" d="M0,439.79999999999995v3.5999999999999996M0,39.2v-3.5999999999999996" transform="translate(435.33,0)" style="stroke: rgb(0, 0, 0); stroke-opacity: 1; stroke-width: 1.2px;"/><path class="xtick ticks crisp" d="M0,439.79999999999995v3.5999999999999996M0,39.2v-3.5999999999999996" transform="translate(501.04,0)" style="stroke: rgb(0, 0, 0); stroke-opacity: 1; stroke-width: 1.2px;"/><path class="xtick ticks crisp" d="M0,439.79999999999995v6M0,39.2v-6" transform="translate(65,0)" style="stroke: rgb(0, 0, 0); stroke-opacity: 1; stroke-width: 1.2px;"/><path class="xtick ticks crisp" d="M0,439.79999999999995v6M0,39.2v-6" transform="translate(254.5,0)" style="stroke: rgb(0, 0, 0); stroke-opacity: 1; stroke-width: 1.2px;"/><path class="xtick ticks crisp" d="M0,439.79999999999995v6M0,39.2v-6" transform="translate(444,0)" style="stroke: rgb(0, 0, 0); stroke-opacity: 1; stroke-width: 1.2px;"/><g class="xtick"><text text-anchor="middle" x="0" y="460.2" transform="translate(65,0)" style="font-family: Arial; font-size: 12px; fill: rgb(0, 0, 0); fill-opacity: 1; white-space: pre;">1.00e+0</text></g><g class="xtick"><text text-anchor="middle" x="0" y="460.2" style="font-family: Arial; font-size: 12px; fill: rgb(0, 0, 0); fill-opacity: 1; white-space: pre;" transform="translate(254.5,0)">1.00e+1</text></g><g class="xtick"><text text-anchor="middle" x="0" y="460.2" style="font-family: Arial; font-size: 12px; fill: rgb(0, 0, 0); fill-opacity: 1; white-space: pre;" transform="translate(444,0)">1.00e+2</text></g></g><g class="yaxislayer-above"><path class="ytick ticks crisp" d="M64.19999999999999,0h-6M510.79999999999995,0h6" transform="translate(0,439)" style="stroke: rgb(0, 0, 0); stroke-opacity: 1; stroke-width: 1.2px;"/><path class="ytick ticks crisp" d="M64.19999999999999,0h-6M510.79999999999995,0h6" transform="translate(0,359.2)" style="stroke: rgb(0, 0, 0); stroke-opacity: 1; stroke-width: 1.2px;"/><path class="ytick ticks crisp" d="M64.19999999999999,0h-6M510.79999999999995,0h6" transform="translate(0,279.4)" style="stroke: rgb(0, 0, 0); stroke-opacity: 1; stroke-width: 1.2px;"/><path class="ytick ticks crisp" d="M64.19999999999999,0h-6M510.79999999999995,0h6" transform="translate(0,199.6)" style="stroke: rgb(0, 0, 0); stroke-opacity: 1; stroke-width: 1.2px;"/><path class="ytick ticks crisp" d="M64.19999999999999,0h-6M510.79999999999995,0h6" transform="translate(0,119.8)" style="stroke: rgb(0, 0, 0); stroke-opacity: 1; stroke-width: 1.2px;"/><path class="ytick ticks crisp" d="M64.19999999999999,0h-6M510.79999999999995,0h6" transform="translate(0,40)" style="stroke: rgb(0, 0, 0); stroke-opacity: 1; stroke-width: 1.2px;"/><g class="ytick"><text text-anchor="end" x="55.8" y="4.199999999999999" transform="translate(0,439)" style="font-family: Arial; font-size: 12px; fill: rgb(0, 0, 0); fill-opacity: 1; white-space: pre;">0.8</text></g><g class="ytick"><text text-anchor="end" x="55.8" y="4.199999999999999" style="font-family: Arial; font-size: 12px; fill: rgb(0, 0, 0); fill-opacity: 1; white-space: pre;" transform="translate(0,359.2)">0.9</text></g><g class="ytick"><text text-anchor="end" x="55.8" y="4.199999999999999" style="font-family: Arial; font-size: 12px; fill: rgb(0, 0, 0); fill-opacity: 1; white-space: pre;" transform="translate(0,279.4)">1</text></g><g class="ytick"><text text-anchor="end" x="55.8" y="4.199999999999999" style="font-family: Arial; font-size: 12px; fill: rgb(0, 0, 0); fill-opacity: 1; white-space: pre;" transform="translate(0,199.6)">1.1</text></g><g class="ytick"><text text-anchor="end" x="55.8" y="4.199999999999999" style="font-family: Arial; font-size: 12px; fill: rgb(0, 0, 0); fill-opacity: 1; white-space: pre;" transform="translate(0,119.8)">1.2</text></g><g class="ytick"><text text-anchor="end" x="55.8" y="4.199999999999999" style="font-family: Arial; font-size: 12px; fill: rgb(0, 0, 0); fill-opacity: 1; white-space: pre;" transform="translate(0,40)">1.3</text></g></g><g class="overaxes-above"/></g></g><g class="polarlayer"/><g class="smithlayer"/><g class="ternarylayer"/><g class="geolayer"/><g class="funnelarealayer"/><g class="pielayer"/><g class="iciclelayer"/><g class="treemaplayer"/><g class="sunburstlayer"/><g class="glimages"/><defs id="topdefs-4a276d"><g class="clips"/><clipPath id="legend4a276d"><rect width="169" height="29" x="0" y="0"/></clipPath></defs><g class="layer-above"><g class="imagelayer"/><g class="shapelayer"><g class="shape-group" data-index="0" clip-path="url(#clip4a276dy)"><path data-index="0" fill-rule="evenodd" d="M65,279.4L510,279.4" style="opacity: 1; stroke: rgb(255, 0, 0); stroke-opacity: 1; fill: rgb(0, 0, 0); fill-opacity: 0; stroke-dasharray: 9px, 9px; stroke-width: 1.2px;"/></g></g></g><g class="infolayer"><g class="legend" pointer-events="all" transform="translate(518.9000000000001,40)"><rect class="bg" shape-rendering="crispEdges" style="stroke: rgb(68, 68, 68); stroke-opacity: 1; fill: rgb(255, 255, 255); fill-opacity: 1; stroke-width: 0px;" width="169" height="29" x="0" y="0"/><g class="scrollbox" transform="" clip-path="url(#legend4a276d)"><g class="groups"><g class="traces" transform="translate(0,14.5)" style="opacity: 1;"><text class="legendtext" text-anchor="start" x="40" y="4.680000000000001" style="font-family: Arial; font-size: 12px; fill: rgb(0, 0, 0); fill-opacity: 1; white-space: pre;">Isotropy Coeff Data3</text><g class="layers" style="opacity: 1;"><g class="legendfill"/><g class="legendlines"><path class="js-line" d="M5,0h30" style="fill: none; stroke: rgb(99, 110, 250); stroke-opacity: 1; stroke-width: 2.2px;"/></g><g class="legendsymbols"><g class="legendpoints"/></g></g><rect class="legendtoggle" x="0" y="-9.5" width="163.859375" height="19" style="fill: rgb(0, 0, 0); fill-opacity: 0;"/></g></g></g><rect class="scrollbar" rx="20" ry="3" width="0" height="0" style="fill: rgb(128, 139, 164); fill-opacity: 1;" x="0" y="0"/></g><g class="g-gtitle"/><g class="g-xtitle"><text class="xtitle" x="287.5" y="487.60019531250003" text-anchor="middle" style="opacity: 1; font-family: Arial; font-size: 14px; fill: rgb(0, 0, 0); fill-opacity: 1; white-space: pre;">k</text></g><g class="g-ytitle"><text class="ytitle" transform="rotate(-90,17.206054687500007,239.5)" x="17.206054687500007" y="239.5" text-anchor="middle" style="opacity: 1; font-family: Arial; font-size: 14px; fill: rgb(0, 0, 0); fill-opacity: 1; white-space: pre;">IC(k)</text></g></g></svg>